<?xml version="1.0" standalone="no"?>
<!DOCTYPE svg PUBLIC "-//W3C//DTD SVG 1.1//EN" "http://www.w3.org/Graphics/SVG/1.1/DTD/svg11.dtd" >
<svg xmlns="http://www.w3.org/2000/svg" xmlns:xlink="http://www.w3.org/1999/xlink" version="1.1">
<metadata></metadata>
<defs>
<font id="germsmonsters" horiz-adv-x="491" >
<font-face units-per-em="2048" ascent="1638" descent="-410" />
<missing-glyph horiz-adv-x="1024" />
<glyph horiz-adv-x="0" />
<glyph unicode="&#xd;" horiz-adv-x="1024" />
<glyph unicode=" "  horiz-adv-x="1024" />
<glyph unicode="&#x09;" horiz-adv-x="1024" />
<glyph unicode="&#xa0;" horiz-adv-x="1024" />
<glyph unicode="!" horiz-adv-x="286" d="M102 727v778h21v-776q30 -194 61 -389l-20 -4q-10 84 -27.5 188.5t-34.5 202.5zM129 143q0 25 16.5 45.5t49.5 20.5q25 0 45 -16.5t20 -49.5q0 -25 -14 -41q-18 -25 -51 -24q-25 0 -45.5 16.5t-20.5 48.5z" />
<glyph unicode="&#x22;" horiz-adv-x="276" d="M72 1362v143h20v-143h-20zM164 1382v123h20v-123h-20z" />
<glyph unicode="#" horiz-adv-x="870" d="M104 899q59 59 144 98l-23 109v256h21v-254l22 -100q55 25 119 41t129 26q-39 104 -51 152q-25 90 -25 176h21q0 -92 22 -174q8 -29 54 -150q39 6 105.5 12.5t135.5 14.5v-21q-59 0 -114 -6q-4 0 -121 -18q20 -51 28 -82q2 -8 13 -55l10 -60q55 16 111.5 26.5t113.5 10.5 v-20q-57 0 -112.5 -10.5t-110.5 -26.5q18 -262 39 -525l-21 -4q-14 86 -20 263.5t-16 259.5q-31 -10 -152 -56q-80 -29 -94 -34q31 -109 47 -203v-289h-21v285l-45 200q-51 -16 -99 -28.5t-101 -16.5v21q47 4 97 15t97 28l-55 217q-35 -18 -67.5 -41t-63.5 -53zM272 987 l56 -221l245 92l-10 62q-6 27 -18.5 67.5t-22.5 69.5q-74 -12 -134 -28.5t-116 -41.5z" />
<glyph unicode="$" horiz-adv-x="651" d="M61 1014q0 150 33 262q49 168 152 168l61 -4v157h21v-161q70 -16 128 -57.5t105 -102.5l-16 -12q-43 59 -96.5 97t-120.5 54v-641q164 -94 225 -180q51 -72 51 -164q0 -121 -88 -164q-61 -31 -199 -30v-93h-20v93q-115 0 -148.5 14t-66.5 94l20 8q29 -72 58.5 -84 t136.5 -12v94l10 41v371l-86 49q-115 63 -137.5 98t-22.5 105zM82 1014q0 -92 61 -135q16 -12 86 -52l78 -41v633l-61 4q-94 0 -135 -159q-29 -111 -29 -250zM317 256q164 0 215.5 43t51.5 131q0 104 -80 191q-59 63 -176 131v-363l-11 -41v-92z" />
<glyph unicode="%" horiz-adv-x="716" d="M104 160q27 45 50 133q59 238 61 244q57 135 147 311q78 150 158 301q96 188 146 309l20 -8q-55 -139 -143 -309q-80 -152 -158 -301q-100 -195 -149 -312q-4 -12 -64 -241q-23 -90 -51 -140zM127 1188q0 51 33 79.5t76 28.5q50 1 81 -36q27 -29 27 -72q0 -51 -32.5 -80 t-75.5 -29q-51 0 -80 33t-29 76zM360 389q0 66 60 92q10 4 20.5 6t20.5 2q65 0 92 -59q4 -10 6 -20.5t2 -20.5q0 -66 -59 -92q-10 -4 -20.5 -6t-20.5 -2q-66 0 -92 59q-4 10 -6.5 20.5t-2.5 20.5z" />
<glyph unicode="&#x26;" horiz-adv-x="655" d="M113 451q0 135 22.5 255.5t67.5 254.5q-20 74 -34.5 149.5t-14.5 128.5q0 63 26.5 97t147.5 71v-170q-59 -152 -68 -170q-25 -70 -35 -102q20 -78 58 -174q31 -84 63 -152q12 -23 94 -113q37 -41 52 -71l6 -17q16 47 28.5 139.5t18.5 139.5l69 10v-20l-51 -9 q-10 -74 -20.5 -154.5t-32.5 -133.5q41 -141 84 -283l-21 -8q-18 49 -42.5 139t-34.5 123q-31 -59 -86.5 -92t-143.5 -33q-82 0 -117.5 50t-35.5 145zM133 451q0 -84 31 -129.5t102 -45.5q86 0 139 35.5t82 98.5l-16 36q-14 31 -47 70q-86 96 -94 115q-27 55 -62 142 t-55 153q-37 -115 -58.5 -233t-21.5 -242zM174 1239q0 -53 9.5 -108.5t31.5 -133.5q23 70 43 121q33 82 49 123v137q-72 -20 -96 -41q-37 -31 -37 -98z" />
<glyph unicode="'" horiz-adv-x="174" d="M82 1403v143h20v-143h-20z" />
<glyph unicode="(" horiz-adv-x="337" d="M82 696q0 246 53 447q47 176 154 387l16 -8q-102 -209 -149 -385q-53 -201 -54 -441q0 -195 24 -320.5t89 -309.5l-20 -9q-63 178 -88 314.5t-25 324.5z" />
<glyph unicode=")" horiz-adv-x="358" d="M74 57q113 193 166 461q47 236 47 522q0 172 -40 277.5t-143 243.5l17 12q102 -135 144 -248t42 -285q0 -293 -47 -528q-53 -270 -170 -467z" />
<glyph unicode="*" horiz-adv-x="1095" d="M41 963q139 55 201.5 68t136.5 13l123 441l133 -441l399 62q-33 -98 -219 -279q-76 -72 -149 -141q74 -57 143 -174q100 -166 123 -195l20 -41l-368 277q-92 -129 -185 -258q-109 -141 -225 -213l205 573q-96 80 -146 123q-147 129 -192 185z" />
<glyph unicode="+" horiz-adv-x="532" d="M82 778v21h186q0 63 -7 111t-25 122l20 4q12 -49 22.5 -115.5t10.5 -121.5h182v-21h-180q0 -57 8 -123q0 -6 18 -120l-20 -5q-10 63 -18.5 126t-8.5 122h-188z" />
<glyph unicode="," horiz-adv-x="385" d="M78 186q0 31 15.5 65t49 55.5t76.5 21.5q31 0 64.5 -15.5t55 -49.5t21.5 -77q0 -30 -12 -59l-4 -8v-70q-20 -59 -57 -119q-51 -82 -94 -82l-17 5q14 33 19.5 55t5.5 59q0 23 -1 42.5t-12 37.5l-28 10q-39 18 -60.5 52t-21.5 77z" />
<glyph unicode="-" d="M90 881l51 10h279l43 -10l-4 -21l-41 10h-273l-51 -10z" />
<glyph unicode="." horiz-adv-x="235" d="M23 102q0 27 18 52q27 33 65 32q27 0 55.5 -21.5t28.5 -64.5q0 -31 -16 -49q-27 -33 -68 -33q-27 0 -51 19q-33 27 -32 65z" />
<glyph unicode="/" horiz-adv-x="593" d="M70 86q16 84 45 168q4 12 110 270q10 -4 21 -8q55 143 104 350q31 127 76 363q0 6 -10 4q-6 2 -10 4q10 53 26 100q57 164 60 170l20 -4q-6 -27 -8 -72t-2 -53v-88q0 -55 -6 -78q-14 2 -27 7q-8 0 -14 2q-59 -299 -103 -453q-35 -129 -86 -260q10 -4 21 -8 q-25 -61 -68 -156q-78 -172 -96 -274z" />
<glyph unicode=":" horiz-adv-x="368" d="M41 807q0 53 41 94q39 35 84 35q53 0 94 -41q16 -16 25.5 -38.5t9.5 -49.5q0 -53 -39 -89t-86 -36q-53 0 -94 41q-35 39 -35 84zM63 199q0 66 50 108q39 33 92 33q65 0 108 -49q33 -39 33 -90q0 -66 -49 -109q-41 -35 -94 -35q-63 0 -107 49q-33 39 -33 93z" />
<glyph unicode=";" horiz-adv-x="385" d="M78 186q0 31 15.5 65t49 55.5t76.5 21.5q31 0 64.5 -15.5t55 -49.5t21.5 -77q0 -30 -12 -59l-4 -8v-70q-20 -59 -57 -119q-51 -82 -94 -82l-17 5q14 33 19.5 55t5.5 59q0 23 -1 42.5t-12 37.5l-28 10q-39 18 -60.5 52t-21.5 77zM94 584q0 49 39 92q43 39 92 39 q53 0 92 -39t39 -92q0 -55 -39 -92q-37 -39 -92 -39q-53 0 -92 38.5t-39 92.5z" />
<glyph unicode="&#x3c;" horiz-adv-x="778" d="M129 946q86 43 203 133q96 76 194 154q111 84 197 119l8 -21q-82 -33 -190 -114q-4 -4 -191 -148q-123 -94 -192 -131q45 -66 184 -256q115 -156 176 -260q88 -150 127 -287l-20 -4q-55 197 -211 422q-143 197 -285 393z" />
<glyph unicode="=" horiz-adv-x="890" d="M102 993v21h430q82 -12 160 -22.5t158 -18.5v-21q-70 6 -162 19q-33 4 -158 22h-428zM131 563q346 51 688 51v-20q-342 0 -684 -51z" />
<glyph unicode="&#x3e;" horiz-adv-x="552" d="M74 242q27 45 76 86q74 59 88 78q31 35 73 159q20 59 49 97l148 180q-18 29 -29 45q-68 106 -98 141q-98 111 -172 219q-98 145 -117 236l21 4q18 -88 114 -230q76 -111 170 -217q25 -27 80 -114q18 -29 53 -84l-153 -193q-61 -129 -123 -256q-23 -27 -86 -78 q-53 -43 -78 -86z" />
<glyph unicode="?" horiz-adv-x="624" d="M92 1270q0 94 99.5 154.5t207.5 60.5q119 0 158 -70q27 -49 27 -176q0 -84 -9.5 -136t-44.5 -106q-16 -29 -114 -88q-78 -47 -78 -114q0 -70 5 -143.5t26 -198.5l-21 -4q-10 66 -20.5 172t-10.5 174t78 118q98 66 119 97q31 49 40 99t9 130q0 119 -20 160q-33 66 -144 65 q-104 0 -188 -49q-98 -57 -98 -145h-21zM328 225q-10 51 41 62q51 10 61 -41t-41 -62q-51 -10 -61 41z" />
<glyph unicode="@" horiz-adv-x="1064" d="M41 768q0 264 119 424q133 180 389 180q229 0 331.5 -102.5t102.5 -327.5t-244 -225q-6 78 -10 128t-22 81q0 -131 -39 -205q-51 -96 -166 -96q-113 0 -180 57q-76 63 -76 174q0 109 58 195t157 86q80 0 144.5 -37t99.5 -103l-17 -8q-35 59 -94 93t-133 34 q-90 0 -142.5 -79t-52.5 -181q0 -100 66.5 -155.5t169.5 -55.5q88 0 131 60q53 72 53 268q33 -27 49 -76q4 -10 23 -160q205 0 205 205q0 215 -97.5 312.5t-316.5 97.5q-244 0 -373 -174q-115 -156 -115 -410q0 -180 160 -295q145 -104 342 -104q123 0 217 42t174 128 l17 -13q-80 -86 -181.5 -132t-226.5 -46q-207 0 -356 109q-166 121 -166 311z" />
<glyph unicode="A" horiz-adv-x="1089" d="M86 207q14 35 25 82l-17 12l19 4q2 8 11 50t17 61q20 55 45 145q18 70 39 150l66 250h-23v20h29q41 102 84 207l86 450q63 -66 113 -196q37 -102 73 -203q76 -156 152 -309l74 -10l-5 -21l-65 10q27 -145 78 -305l28 -90v-4l39 -111l25 -2l-18 -18l49 -141l-21 -9l-12 35 l-35 -20l35 -6l-4 -21q-16 2 -38 7t-56 16l86 30q0 18 -55.5 31.5t-69.5 28.5q43 18 55 24q25 12 39 25q-37 4 -68.5 11t-60.5 28q27 23 37 31q29 25 43 47l-117 14q4 4 51 43q20 16 35 37q-43 10 -49 12q-20 8 -57 33q31 16 51 29q29 18 41 22q-18 57 -30.5 108.5 t-23.5 116.5q-193 25 -385 50h-88l-61 -244q25 -16 45 -31.5t39 -40.5q-33 -8 -70 -20.5t-45 -14.5q25 -18 49 -37q25 -23 37 -57l-100 -31q35 -35 74 -86q-31 -8 -66 -16t-47 -12q27 -8 49.5 -16.5t52.5 -24.5l-125 -41q25 -16 56 -56q-43 -12 -54.5 -14t-31.5 -2l-9 -18z M121 238l41 8l-33 30zM137 309q29 6 46.5 12.5t35.5 14.5l-72 24zM156 389q20 8 39.5 12.5t48.5 10.5q-6 8 -33 37q-14 14 -27 28l-22 -69zM193 504l86 26q-8 18 -23 33q-6 4 -37 27zM231 637l68 20q-18 23 -53 39zM319 981h84q47 -8 166 -22.5t213 -24.5q-14 59 -67 151 q-74 127 -82 146q-43 123 -66 186q-43 121 -92 176q-16 -61 -31 -151l-43 -258q-8 -39 -39.5 -105.5t-42.5 -97.5zM532 1059q0 37 31 53q14 8 31 8h2q35 0 51 -30q8 -14 8 -31q0 -35 -30 -51q-14 -8 -33 -9q-35 0 -51 29q-8 14 -9 31zM586 1020q14 -14 28 0q12 12 0 24 q-14 14 -26 3q-14 -14 -2 -27zM786 633q10 -6 36 -13.5t40 -9.5l-16 54zM815 522l76 -6l-21 66q-12 -18 -26.5 -32.5t-28.5 -27.5zM840 420q18 -8 46 -13.5t44 -7.5l-29 86q-12 -18 -28.5 -34.5t-32.5 -30.5zM883 324q10 -2 40 -11.5t44 -17.5l-23 65q-8 -8 -28.5 -19 t-32.5 -17z" />
<glyph unicode="B" horiz-adv-x="604" d="M76 571v31v85t6 89v154q8 41 10 83t2 167q0 61 -4 106q-14 160 -14 170h16v10q176 0 264 -45q121 -61 121 -217q0 -119 -41 -193.5t-135 -133.5l-35 -13l13 -24l26 37q25 -31 35 -43l20 32q14 -25 19 -47l45 43v-57q16 12 30.5 19t39.5 14l-41 -72q37 -25 58 -65t21 -95 q0 -172 -53 -293q-59 -135 -188 -211l-197 -2q0 47 -6 78v201q-8 51 -10 91t-2 101zM96 602q0 -57 1 -105t12 -114v-203l6 -59h172q121 72 176 203q49 116 49 282q0 57 -24.5 96t-71.5 64l-13 -14v20l-30 12l-6 -2l-82 27q-25 4 -86.5 12t-96.5 10v-57q-6 -59 -6 -129v-43z M96 1446q0 -55 4 -98q14 -152 15 -168v-66v-24q0 -84 -13 -162v-86q33 18 123 32q43 6 64 19l51 33l8 8l4 4l15 14q6 6 6 11q6 -2 8 2t2 6q74 86 74 233q0 145 -113 201q-82 41 -248 41zM152 848l90 -10q10 16 16 24q-47 -4 -64.5 -6t-41.5 -8zM182 1055q0 12 10.5 29.5 t24.5 20.5t51 3q23 0 47 -18q9 -7 29 -27q8 -8 8 -19q0 -27 -34.5 -59.5t-59.5 -32.5q-74 0 -74 72q-2 20 -2 31zM258 862l8 2zM260 1018q0 -33 16 -29q10 0 11 21q0 33 -17 28q-10 0 -10 -20zM295 827l29 -6l-17 23zM311 889l13 16q6 -4 10 7.5t10 27.5q6 -16 12 -29 q4 0 3 17.5t-1 40.5l25 -39v22l12 21l6 10l7 4l12 17l-2 10l10 2l-6 14l16 12l43 -79q-25 10 -39 20q-2 0 -4 2l8 -31l-22 2l4 -59l-25 41v-16l-4 -39l-26 26q-8 -18 -17 -18l-8 2q-6 -14 -16 -14q-4 0 -21 10zM358 811v10v-10zM389 801l14 -6v22zM401 944l2 -6zM430 780 l6 -4l13 21z" />
<glyph unicode="C" horiz-adv-x="921" d="M88 731q0 168 90 319.5t234 206.5h4q33 14 76 21l-5 65q0 98 55.5 141.5t151.5 43.5q82 0 123 -60q35 -51 35 -135q0 -39 -18 -63q-8 -10 -46 -39l-4 -6l-12 2l-6 -88q-37 20 -58.5 43.5t-37.5 54.5q-14 -25 -24.5 -41t-41.5 -57q-10 35 -19.5 51t-41.5 59 q-2 -16 -3 -35.5t-1 -33.5v-33q-7 -1 -14 -1q-36 0 -65 34q-34 41 -36 43q-10 -33 -12 -63t-2 -85v-24q-43 6 -74 39q-33 43 -49 61q-84 -78 -131 -191.5t-47 -228.5q0 -125 21.5 -232.5t68.5 -197.5q10 6 63 47q25 18 27 19q12 -49 18 -76q20 -90 21 -119q29 18 57.5 48 t58.5 63q18 -31 31 -56q33 -66 41 -77q8 20 41 59q10 12 31 35q27 -35 39 -54q37 -53 55 -88h14q25 20 50.5 61.5t54.5 86.5q4 -43 14 -76q2 -6 21 -51l8 4l8 -21q-35 -14 -68.5 -19t-83.5 -5l-20 -14l-8 14h-15q-137 0 -215 12q-131 20 -180 78q-92 106 -133 247.5 t-41 311.5zM209 283q33 -55 70 -99l30 -26l-33 178q-4 0 -30.5 -21.5t-36.5 -31.5zM303 1167q18 -27 38.5 -54.5t47.5 -35.5q0 51 2.5 81t14.5 73q-53 -20 -103 -64zM328 147q66 -33 171 -39t158 -6l-69 113l-72 -102q-20 27 -33 51q-23 41 -43 84q-25 -27 -50 -51.5 t-62 -49.5zM432 1241q31 -39 41 -53q20 -25 45 -25l4 99q-43 0 -90 -21zM508 1343l4 -61h14l2 14l13 -14q31 0 62.5 -4t62.5 -8l8 14l6 -18l96 -19q33 27 37 33q18 22 18 53q0 76 -28 121q-35 53 -109 53q-88 0 -137 -37.5t-49 -126.5zM557 1262q12 -14 26.5 -33t26.5 -47 l45 69q-45 8 -65.5 9.5t-32.5 1.5zM670 1339q0 31 21.5 46.5t41.5 15.5q31 0 49 -23q14 -16 15 -41q0 -29 -19.5 -45t-44.5 -16q-31 0 -47 20.5t-16 42.5zM692 1243q14 -25 24.5 -38t31.5 -31l4 57zM723 102q51 1 94 15q-23 39 -31 78q-14 -25 -28.5 -48.5t-34.5 -44.5z M731 1333q-12 -16 2 -26q17 -12 29 2t-4 26t-27 -2z" />
<glyph unicode="D" horiz-adv-x="786" d="M180 768v729h164l53 -12q29 61 69 92t105 31q35 0 69 -55.5t34 -96.5q0 -47 -30 -73.5t-77 -39.5l33 -79q51 -86 105 -172q14 -39 19 -86.5t5 -182.5v-78q0 -33 -1 -63.5t-11 -60t-51 -72.5q-53 -55 -62 -70q-61 -102 -149 -182q-98 -90 -199 -123l-4 12h-8q0 20 -8.5 45 t-14.5 48l-16 235q-12 127 -25 254zM201 770q6 -31 12 -125t12 -127l17 -237l12 -43l-6 108q49 -35 69 -59q10 37 11 116q27 -33 38 -47t21 -34q10 20 10 53q-2 37 -2 59l82 -47q2 20 3 43t1 70q16 -18 35 -37q8 -2 31 -19l-12 -16q-16 10 -33 21l-6 -78q31 35 52 62.5 t40 58.5q8 14 57 65q41 43 50.5 67.5t11.5 55.5t2 70v73v68q0 78 -3.5 112.5t-21.5 79.5q-8 27 -37 66q-59 86 -67 106q-25 76 -55.5 121t-90.5 74v-111q12 12 21 33q2 6 14 39l20 -8q-14 -37 -24 -53q-16 -29 -51 -58v164q-20 -35 -33 -51q-25 -33 -53 -57v32q0 35 -6 58 q-10 -23 -21.5 -38.5t-36.5 -35.5q-12 51 -16 59q-2 -12 -15.5 -17t-31.5 -11v-625zM201 1462h12v-41q12 4 17.5 20t11.5 36h-41v-15zM248 1477q23 -49 28 -74q21 21 35 74h-63zM260 215l2 -14q55 20 112.5 61t110.5 96l-69 43v-30q0 -27 -5 -45.5t-24 -40.5l-39 61 q0 -45 -24 -104q-33 49 -54 63l4 -90h-14zM326 1477q23 -43 22 -82q8 10 23.5 32.5t23.5 36.5l-53 13h-16zM434 1473q78 -35 123 -111q43 10 66 29q30 24 30 65q0 47 -37 98q-25 33 -45 33q-49 0 -81.5 -20.5t-55.5 -59.5v-34zM512 1466q0 8 4 21q16 31 51 31q8 0 21 -5 q31 -16 30 -49q0 -14 -4 -20q-16 -33 -51 -33q-8 0 -20 4q-31 12 -31 51zM553 1444q10 -18 31 -6q18 10 6 30q-10 18 -31 7q-18 -10 -6 -31z" />
<glyph unicode="E" horiz-adv-x="729" d="M88 1081v293h201q57 -12 161.5 -19t151.5 -14l4 9q51 -16 64 -29q22 -21 22 -68q0 -43 -30.5 -75.5t-71.5 -32.5q-96 0 -148 22q-71 31 -71 107q0 25 8 39t20 24l-112 17h-178v-271q12 -78 22 -178t10 -182h62l8 20l25 -20h53q31 -6 70.5 -12t70.5 -6v-21h-20v-63l-76 47 l-33 -93q-14 53 -29.5 78t-42.5 49h-10q-6 -29 -6 -81q-33 20 -44 32.5t-24 36.5l17 8q12 -27 31 -39l6 43h-58q0 -88 5.5 -162.5t29.5 -224.5l17 -106v39q39 -18 65 -45q18 -23 27 -31l45 94l14 -53q0 18 6 31q16 23 27 41q10 -16 33 -64q16 -33 26 -49q6 27 16.5 52.5 t30.5 58.5q10 -33 18.5 -56.5t26.5 -48.5q8 27 12.5 39t18.5 37q12 -23 25.5 -42t44.5 -58l-11 -9h46v-20h-215h-3h-266q0 45 -11 107.5t-13 78.5q-14 96 -24.5 199.5t-10.5 191.5l-4 21v45q0 74 -7.5 151.5t-21.5 161.5zM197 178l4 -33h82q-12 12 -37 41q-16 20 -33 31v-39 h-16zM258 702q12 -12 23.5 -24t19.5 -37q0 2 8 22.5t10 32.5l-32 6h-29zM297 145h135q-20 31 -32.5 52.5t-24.5 46.5q-6 -18 -11.5 -37t-5.5 -53q-18 25 -34 49zM319 696l7 -2zM326 694l63 -37v29zM391 1276q0 -70 66 -94q43 -16 133 -17q33 0 57.5 26.5t24.5 61.5 q0 51 -47 68q-102 8 -205 16l4 -6q-12 -12 -22.5 -24.5t-10.5 -30.5zM453 145h75q-41 51 -51 86zM528 1241q0 12 9.5 32.5t40.5 20.5q12 0 33.5 -9t21.5 -42q0 -10 -6 -20q-12 -31 -47 -31q-12 0 -23 6q-29 12 -29 43zM543 145h65l-47 68zM573 1225q12 -14 29 -2q16 12 4 26 q-12 16 -28 4t-5 -28z" />
<glyph unicode="F" horiz-adv-x="962" d="M195 1403q145 0 279 8t253 29v12q23 0 68 2t67 2q33 0 49 -2q2 -16 6.5 -40.5t4.5 -61.5q0 -72 -44 -108t-124 -36q-131 0 -181 31q-61 39 -61 154q-63 0 -171 -5.5t-126 -5.5l10 -100v-311l23 -4l14 6l2 -8l12 -2h330l74 18q10 -35 13 -39t5 -4q-2 -10 -2 -41 q0 -53 -26 -131q-27 43 -53.5 78t-49.5 57q-12 -27 -30 -55q-25 -37 -48 -55l-102 143q-8 -25 -14 -41q-37 -94 -56 -125q-16 33 -38.5 94.5t-30.5 83.5l-23 2v-264q29 -8 42.5 -13t47.5 -24l-45 -45t-34 -41q51 -6 57 -8q29 -10 47 -14q-41 -41 -62.5 -64.5t-44.5 -54.5 l162 -12l-137 -107q27 -10 39 -15t49 -28l-100 -80v-35h-21l-4 150l-6 2l4 4q0 45 -10 100h-12l8 15v131l-8 2l8 10v721q-4 29 -7 63.5t-3 61.5zM225 442q20 27 36 46.5t36 39.5l-72 13v-99zM225 582l54 61q-33 14 -54 19v-80zM229 399l11 -86l102 78q-35 4 -54.5 6t-58.5 2 zM242 285l4 -80l63 49zM274 942q10 -35 23.5 -74t21.5 -57q6 10 21 43q8 18 37 88h-103zM399 942l90 -121q18 27 27 41q31 51 41 80h-158zM532 1395q0 -102 56 -138q44 -28 158 -28h8q74 0 110.5 27.5t36.5 95.5v45q-6 16 -8 37q-23 2 -33 2q-16 0 -51 -2t-51 -2l2 -9 q-80 -14 -128 -21t-100 -7zM573 942q27 -31 52.5 -69.5t38.5 -59.5q12 41 12 84q0 20 4 37q0 -2 -4 2t-8 16l-43 -10l-19 -4zM741 1319q0 14 7 27q16 29 53 28q14 0 26 -6q29 -16 29 -53q0 -13 -6 -25q-16 -30 -53 -30h-2q-12 0 -25 6q-29 16 -29 53zM797 1290q14 -14 28 0 t0 29q-14 14 -28 0t0 -29z" />
<glyph unicode="G" horiz-adv-x="993" d="M82 641q0 190 24 334q35 205 117 323q100 145 264 146h63t66 2q57 0 86 -3t64 -16q57 -29 84 -92q6 -16 12 -35.5t6 -39.5q0 -31 -18 -62q-10 -16 -31.5 -24.5t-48.5 -8.5q-41 0 -98 17q-18 4 -56 18t-81 33q-33 23 -33 88q0 23 5 59.5t5 42.5h-25q-158 0 -251 -141 q-76 -113 -109 -313q-25 -152 -25 -328q0 -145 31 -247.5t103 -172.5q12 33 29.5 59.5t49.5 61.5q8 -49 10.5 -89t2.5 -87q35 31 71 100q2 -4 27 -35q14 -18 14 -59q16 14 27 35q2 4 33 96q31 -51 49 -96q12 -31 29 -78q14 23 27 63.5t24 69.5q23 -10 47 -18q14 -16 31 -33 q31 43 46 113.5t15 148.5q-20 -31 -36.5 -59.5t-39.5 -73.5q-8 43 -16 61.5t-17 28.5q-14 -33 -19 -39t-62 -51q-8 45 -11 61q-8 49 -24 80q-12 -18 -35 -49t-47 -59q0 25 -2 65.5t-2 55.5q2 20 2 30l12 -2v10h236l278 -51l-4 -20l-193 37q0 -158 -34 -244 q-47 -117 -164 -143l-19 -31l-10 24l-49 -2q-106 0 -188 35l-17 -14v22q-37 16 -61 39l-21 2l2 13q-74 66 -109.5 182.5t-35.5 259.5zM252 205q24 -21 55 -37l-6 125q-14 -16 -26.5 -39t-22.5 -49zM342 152q76 -29 170 -29l43 2q-25 76 -51 125q-14 -47 -23 -60 q-18 -29 -61 -53q0 39 -2 55.5t-17 34.5q-18 -39 -59 -75zM479 512q0 -10 2 -40t2 -44l54 84h-58zM522 1321q0 -55 27 -74q45 -16 74.5 -27.5t46.5 -15.5q57 -16 90 -16q53 0 69 31q14 27 15 53q0 18 -11.5 47t-31 45t-41.5 29q-43 18 -96.5 23t-131.5 5q0 -20 -5 -56 t-5 -44zM549 512q20 -37 28.5 -65.5t14.5 -67.5q33 27 35 31q10 25 26 63q4 -6 29 -37q14 -16 18 -39l60 101l8 -6v8l-63 12h-156zM604 137q55 19 88 58q-12 12 -22 26q-6 2 -29 10q-12 -41 -14 -47q-8 -20 -23 -47zM645 1296q0 25 21.5 44.5t46.5 19.5t43 -18.5t18 -47.5 t-16 -45q-18 -20 -47 -20t-47.5 19.5t-18.5 47.5zM707 1290q-10 -14 4 -24q4 -4 14 -2t12 6q8 16 -6 24q-16 8 -24 -4z" />
<glyph unicode="H" horiz-adv-x="645" d="M61 881v20h70l-39 277v274l-10 84h20l11 -80v-276l12 -84l6 -29l21 -166h112q0 37 5 79t22.5 70.5t42 47t48.5 28t46 9.5q16 0 30.5 -5.5t27 -17.5t26.5 -31v320q-10 47 -15 71.5t-5 63.5h20q0 -37 1 -47t19 -84v-705l3 -10l-3 -65l17 -13l-17 -8v-69l3 -9l18 -16l-14 -4 l30 -174l9 -4l-7 -6l9 -89l6 -4l-6 -4l4 -102h-21v12l-102 60q27 8 50.5 17t37.5 17q-14 10 -29 17q-43 16 -67 26q18 10 41 23q43 23 51 29l-49 34l-41 29l61 27q-16 16 -49 35q-41 25 -66 40q39 14 63.5 20.5t43.5 8.5q-18 18 -37.5 23.5t-43.5 11.5t-65 22 q25 10 53.5 18.5t76.5 16.5l20 4l-90 58l90 33v178l-356 -2l28 -224v-57q12 12 37 29q10 6 33 22q-10 6 -31.5 13.5t-40.5 15.5l8 20q37 -14 46 -18q27 -12 57 -29q-23 -16 -48.5 -31.5t-35.5 -23.5l63 -23q-6 -14 -45 -53q-12 -12 -37 -35q20 -8 31 -12q35 -14 51 -24 q-16 -10 -37.5 -24.5t-33.5 -25.5q16 -6 33.5 -11t48.5 -7q-25 -20 -45.5 -38.5t-38.5 -27.5l-13 -12q6 -8 37 -14t51 -10q-23 -14 -43 -27q-27 -20 -36 -41l67 -12l-76 -60l-2 -8h-20v256v2v262l-29 228h-74zM184 166l27 20l-27 9v-29zM184 233q6 10 13.5 17.5t27.5 21.5 l-41 19v-58zM184 330l6 4q8 4 19 10q17 17 27 25l-52 14v-53zM184 412l47 37l-47 22v-59zM184 512l62 53q-37 10 -62 19v-72zM281 901l231 2v168l-10 -8q-10 12 -23.5 26.5t-28 19.5t-28.5 5q-16 0 -34.5 -8t-39.5 -21q-37 -23 -52 -81t-15 -103zM356 985q0 23 21 47 q25 20 47 21q27 0 47.5 -20.5t20.5 -49.5q-1 -27 -19 -45q-18 -20 -47 -20t-49.5 20t-20.5 47zM426 977q-10 -10 2 -23q17 -12 25 4q6 14 -4 21q-12 8 -23 -2zM428 575l47 -10q21 -6 37 -20v51l-16 -6zM451 481q18 -10 37.5 -20t46.5 -35l-15 74zM467 666l45 -27v43z M483 389l25 -14l39 -29l-8 53zM500 276l59 -28l-6 57zM508 188l55 -32l-4 59z" />
<glyph unicode="I" horiz-adv-x="768" d="M88 1497q43 16 111.5 26.5t193.5 10.5q41 0 117 -6t115 -6q41 -4 54 -15.5t13 -60.5q0 -31 -5 -48.5t-25 -35.5q-29 -27 -66 -27q-88 0 -129 47.5t-41 130.5h-33h-53l2 -196q10 -53 14 -141q12 -215 17 -246v-103h131q-20 -31 -54 -58.5t-47 -45.5h44.5t68.5 -8 q-51 -45 -70 -62q-31 -29 -45 -57q16 -4 55.5 -10t82.5 -13q-47 -45 -50 -47q-37 -33 -81 -39l-5 21q33 4 48.5 13t42.5 36q-41 6 -53.5 8t-43.5 10v-436q27 106 31 119q12 49 23 78q20 -27 31.5 -83t13.5 -71q4 12 20 105q6 29 16 73q18 -45 28.5 -104t19.5 -106 q14 20 26 104t17 96q31 -35 44 -84t13 -100q0 -8 -14.5 -19.5t-20.5 -17.5v-16h-70l-4 -7l-2 7l-49 6h-340q-35 -6 -37 -8q-8 -10 -18 -21l-16 16q27 25 32.5 27t34.5 6h201v443v10v14l-25 137v183q-16 195 -30 389l-3 198q-74 0 -120.5 -7t-102.5 -29zM373 745l4 -28 q14 25 31 41q28 24 57 49h-92v-62zM379 702l16 -77q14 25 41 47q15 12 31 26zM420 139h61q-4 39 -6 80q-6 49 -16 72q-23 -68 -39 -152zM446 1511q0 -155 148 -155h2q18 0 47 25.5t29 64.5q0 33 -16.5 45t-30.5 12q-33 0 -90.5 4t-88.5 4zM506 139h16l43 -4q-2 12 -12 74.5 t-16 79.5q-4 -10 -13.5 -63.5t-17.5 -86.5zM530 1434q0 20 16.5 38.5t37.5 18.5q20 0 38.5 -15.5t18.5 -39.5q0 -23 -14 -37q-14 -16 -41 -17q-25 0 -40.5 15.5t-15.5 36.5zM582 1438q-12 -16 4 -29q16 -12 28 4t-4 29q-16 12 -28 -4zM590 133h41q12 10 20 18.5t8 14.5 q0 47 -5 76.5t-21 58.5q-8 -47 -16.5 -90t-26.5 -78z" />
<glyph unicode="J" horiz-adv-x="858" d="M84 336q68 8 125 29q27 10 115 47q18 16 36 34q12 8 35 17q20 -76 23 -84q18 -39 26 -60l-77 33l32 -112q-2 2 -67 51q-29 23 -51 35q4 -20 4 -47q-2 -45 -2 -54l-70 94q0 -92 42 -136t144 -44q37 0 60 8l-2 9q0 18 -6.5 46.5t-8.5 39.5l66 -23q-8 35 -29 86l49 2l-26 43 q10 8 14 12q33 27 57 37v1043q-57 -8 -95 -16.5t-120 -28.5l-4 20q37 10 103.5 24.5t115.5 20.5v13h21v-11q94 14 211 15v-15q18 -6 23.5 -16t5.5 -43q0 -76 -17 -107q-23 -43 -92 -43q-45 0 -73.5 7.5t-57.5 29.5v-948q-23 -137 -69 -181t-126 -44q-117 0 -161.5 53 t-44.5 166l-105 -23zM219 346l51 -80q-4 25 -7 40.5t-15 49.5zM252 358q25 -6 57 -26q20 -12 53 -39l-26 96zM344 393q23 -18 38.5 -25.5t23.5 -11.5l-27 80q-8 -2 -12 -6q-12 -20 -21 -31zM467 213l8 -59q27 9 47 36zM506 287q18 -31 26 -80q12 20 21.5 49t19.5 90v33 l-51 -33q12 -18 17 -27q18 -31 18 -36zM594 1319q29 -25 57.5 -34t73.5 -9q55 0 71.5 33t16.5 96q0 31 -12.5 36t-30.5 11l2 6q-37 0 -76 -3t-102 -11v-125zM674 1356q0 18 14 38.5t45 20.5q18 0 39 -15.5t21 -43.5q-1 -17 -11 -33q-18 -25 -51 -25q-16 0 -33 11 q-25 16 -24 47zM739 1339q-4 -14 15 -18q22 -5 18 20q-4 12 -14 13q-14 0 -19 -15z" />
<glyph unicode="K" horiz-adv-x="712" d="M70 80v334q14 80 22 224t10 171l-8 25l10 2l2 20v182l-6 68l-12 401l33 4q57 8 117 17q29 0 37 -5t24 -28q25 -35 25 -84q0 -59 -45.5 -86t-112.5 -27q-23 0 -45 19v-211l6 -68v-184q18 29 43 55q16 18 53 56l10 20l5 -6q61 57 116.5 99t112.5 79l22 21l-2 16h11 q8 37 16 47q16 20 64.5 51t64.5 49l16 -16q-16 -16 -39.5 -30.5t-37.5 -22.5q16 -41 30 -86q33 -100 33 -103q-51 16 -75.5 40t-34.5 32l-27 16q2 -25 10 -72.5t10 -60.5q-29 6 -71 23q-18 6 -35 14v-10q0 -21 5 -59q7 -50 7 -70q-68 29 -104 70q-2 -8 -2 -27q0 -18 8 -59 t10 -58q-31 12 -62.5 43t-45.5 45q-41 -39 -69 -70.5t-46 -64.5q16 -45 51 -102q94 -158 98 -168l50 -111q8 4 61 33q35 18 45 22q0 -57 -9 -84.5t-36 -60.5q18 4 31 10q25 18 45 31q-10 -53 -20.5 -85t-16.5 -52l137 16q-16 -35 -33.5 -59.5t-38.5 -40.5q18 0 37 -1t35 -3 l-8 -76q-14 -4 -35 -12q-6 -2 -18 -9q-8 16 -11 25q-12 27 -16 33l-8 10l-10 12l-50 68l-6 12l-8 -2l4 10l-45 91h-20l14 14q-20 51 -31 76q-31 76 -55 125q-70 117 -137 233q0 -188 -29 -358v-332h-20zM121 1350q20 -31 45 -31q57 0 92 18q45 25 45 74q0 33 -3 45t-19 29 q-6 8 -13 16q-8 6 -30 6q-31 0 -74 -10q-14 -4 -43 -12v-135zM188 1403q0 20 12.5 33.5t35.5 13.5q16 0 32.5 -13.5t16.5 -35.5q-1 -19 -13 -31q-12 -14 -34 -14q-18 0 -34 12t-16 35zM242 1407q0 -16 16 -16t16 16t-16 16t-16 -16zM252 965q20 -23 38.5 -42.5t28.5 -25.5 q-2 18 -6 44t-4 40q0 25 4 39zM330 416l26 -66q25 25 37.5 50.5t14.5 56.5q-14 -6 -35 -16.5t-43 -24.5zM332 1036q39 -49 82 -67q0 18 -2 32q-8 55 -9 70l3 21zM369 322l30 -66q21 47 29 84q-12 -8 -25.5 -13t-33.5 -5zM418 225q10 -18 23.5 -33.5t19.5 -21.5 q18 14 35.5 30.5t27.5 41.5zM418 1102q20 -12 44 -23.5t42 -15.5l-10 88l-15 -10zM485 139q10 -12 21 -51l24 12l7 43zM516 1192q18 -4 29.5 -12.5t34.5 -30.5q14 -15 34 -29q-12 43 -24 74t-27 66q-27 -23 -32 -30t-15 -38z" />
<glyph unicode="L" horiz-adv-x="583" d="M57 537v4q0 141 3 189t16 138v289l6 37v373h20v-31q14 20 37 30.5t62 10.5q49 0 73.5 -40t24.5 -95q0 -82 -16 -115q-25 -47 -93 -47t-88 16v-104l-6 -37v-289l-4 -39q45 -6 80 -10t74 -10q-27 -35 -60 -70q-43 -41 -59 -57h135q-33 -37 -90 -66.5t-78 -56.5q61 0 89 -4 t61 -31q-33 -25 -83 -49t-75 -45l-6 8l4 -137q6 31 19.5 53.5t41.5 44.5q23 -47 31 -65q16 -33 35 -49q0 27 4 60.5t8 57.5l35 -73l29 -70q6 43 45 137q12 31 37 84q8 -27 22 -125q8 -47 12 -65q12 61 25.5 104t38.5 86q6 -41 20 -100q27 -117 31 -141h53v-21h-272l-8 -29 l-12 29h-216zM78 537l2 -88q25 18 68 39.5t61 33.5q-16 10 -50 12.5t-42 2.5h-39zM78 567q27 29 67 51q56 29 70 41h-133q18 20 65 68q41 39 62 64q-12 2 -53 7t-68 9q0 -53 -2 -88q-8 -137 -8 -152zM94 238h176l-39 100v-88q-27 12 -47 37q-10 12 -45 78q-20 -18 -27.5 -46 t-17.5 -81zM102 1325q14 -16 29.5 -20.5t58.5 -4.5q57 0 76 41q13 27 13 101q0 63 -21.5 88.5t-56.5 25.5q-66 0 -97 -53zM127 1401q0 39 33 55q14 8 30 8h2q38 0 54 -32q8 -14 8 -31q0 -39 -33 -55q-14 -8 -31 -9q-39 0 -55 33q-8 14 -8 31zM193 1395q-12 -16 2 -27 q16 -12 28 2t-4 27q-16 12 -26 -2zM303 238h96q-16 39 -28 120q-2 25 -9 70q-14 -41 -20 -66q-20 -63 -39 -124zM408 238h90q-8 51 -19.5 92t-21.5 86q-14 -31 -27.5 -88.5t-21.5 -89.5z" />
<glyph unicode="M" horiz-adv-x="833" d="M82 102v699l20 92v369l11 81h20q33 -115 96 -335q51 -178 93 -334l16 49l-12 8l18 10q12 39 16.5 58.5t4.5 46.5l-9 6l11 8l24 273q16 166 58 264l40 -76q41 16 69 20.5t81 4.5q78 0 128 -62.5t50 -142.5q0 -96 -42 -140.5t-134 -68.5l2 -8l19 -4l-15 -15l17 -61l14 -2 l-10 -11q39 -164 59.5 -357t20.5 -372h-21q0 258 -37 504q-39 14 -77 36t-81 54l105 45q-14 6 -33.5 18.5t-34.5 22.5l64 47q-23 2 -47.5 7.5t-48.5 19.5q20 16 47.5 32.5t31.5 20.5l-104 21q20 10 45 21.5t31 15.5q-10 2 -19.5 6t-31.5 22l59 21q-25 70 -68 170 q-27 51 -51 104q-4 8 -7 16.5t-3 10.5q-6 14 -14 33q-20 -53 -31.5 -130t-20.5 -176q20 -2 38 -10t55 -28q-12 -10 -45 -33q-23 -14 -33 -29q14 -8 28.5 -19.5t26.5 -21.5q-14 -18 -42 -29.5t-38 -19.5q33 -18 51.5 -46t18.5 -69h-47.5t-48.5 -10q27 -16 32 -20 q29 -20 56 -64h-103l-18 4l-17 -31q-41 156 -94 345q-43 150 -94 327l-4 -30v-369l-21 -92v-697h-20zM338 668l14 -2h60q-27 27 -60 49zM360 750q37 10 78 10q-2 25 -16 42t-43 36zM385 872q6 4 25.5 11.5t29.5 17.5l-47 37zM393 948q14 16 34 30.5t30 22.5q-27 16 -58 23z M500 1303q35 -63 61.5 -129t73.5 -222q86 23 119 56q43 43 43 133q0 74 -43 129t-115 55q-57 0 -75.5 -3t-63.5 -19zM567 940l54 -10l-11 37zM573 858l68 -10l-10 45zM575 690q18 -14 50 -32.5t63 -34.5l-20 112q-57 -35 -93 -45zM578 989q3 -2 30 -14l-6 20zM602 782 l62 -26l-15 61zM606 1116q0 20 12 43q27 39 74 39q20 0 43 -12q39 -27 39 -74q0 -20 -12 -43q-27 -39 -74 -39q-20 0 -43 12q-39 27 -39 74zM709 1098q-10 -14 4 -25q14 -10 24 4t-4 25q-14 10 -24 -4z" />
<glyph unicode="N" horiz-adv-x="583" d="M27 436v33v4v834q49 -23 77 -64q29 -53 46 -82q63 -102 112 -233q41 -109 80 -250q47 -168 47 -375v-4l2 -49l17 127q29 190 45 380.5t16 379.5q0 37 16 88q8 27 19 53l-8 -6q-12 23 -18.5 28t-31.5 11q-14 -4 -32.5 -9.5t-33.5 -17.5t-26.5 -37.5t-11.5 -75.5 q0 -49 29.5 -77.5t77.5 -32.5v-21q-57 4 -92 38t-35 93q0 51 6 82t34 54q16 12 40 17t47 7q16 -6 31.5 -12t27.5 -27l10 37l21 -4l-50 -188q0 -188 -16 -381t-45 -383q-18 -133 -37 -264l-20 2v61q-33 8 -64 15.5t-57 7.5q33 39 50 56t44 38l-96 24q12 16 53 60q29 29 43 57 q-8 2 -33.5 14.5t-48.5 14.5q12 25 29 49q4 6 28 39l-79 20l63 70q-16 8 -38.5 15t-41.5 14q37 47 72 73l12 -16q-14 -10 -23.5 -19.5t-25.5 -27.5q16 -4 30.5 -8t39.5 -21l-6 27q-41 143 -78 244q-47 127 -111 231q-27 49 -37 70q-20 39 -49 55v-772q18 25 47 47t43 35 l-84 20l4 21l125 -29q-51 -39 -69 -55q-31 -25 -52 -52q45 0 99 -26l-88 -88q4 -14 54 -22.5t60 -10.5q-18 -12 -52 -41t-46 -43l6 -27q12 -12 51 -24t52 -21q-49 -47 -91 -69l3 -56h-21q0 39 -3 80t-11 86q-10 10 -11 25l5 6zM47 438l10 -45l66 66q-31 8 -39 10h-37v-31z M66 356l18 -80l53 56q-31 6 -45 10t-26 14zM96 209q8 -33 9 -45t1 -27l54 45zM276 578l70 -17l-14 74zM281 326l88 -19q0 74 -3.5 115t-17.5 127q-23 -29 -31 -39q-18 -23 -24 -35q12 0 37 -13.5t43 -17.5q-16 -31 -33 -51q-31 -35 -59 -67zM291 211q16 0 38 -6t42 -10 l-2 88q-27 -23 -43.5 -38.5t-34.5 -33.5zM360 1176q0 25 18.5 38t33.5 13q25 -1 41 -21q10 -16 10 -30q0 -23 -21 -39q-12 -10 -34 -11q-25 0 -36.5 17.5t-11.5 32.5zM399 1174q-10 -18 9 -29q16 -10 28 10q10 16 -8 27q-18 10 -29 -8z" />
<glyph unicode="O" horiz-adv-x="847" d="M113 803q0 301 161 512q16 18 36 36.5t40 32.5q37 29 55.5 34t71.5 5q57 0 139 -45q115 -63 134 -69l10 4q39 -92 56.5 -213t17.5 -252q0 -59 2 -122.5t4 -127.5q0 -70 -11 -147l7 -5q-12 -43 -17 -61q-10 -33 -20 -57l-2 -9l-15 -28q-18 -37 -63 -62q-74 -41 -80 -47 q-51 -41 -88 -58.5t-92 -17.5q-80 0 -166 54l-17 -6l3 14q-92 61 -121 133q-6 14 -8.5 29.5t-4.5 36.5h-24l22 28v78q0 61 -15 171t-15 159zM133 803q0 -63 8.5 -129t16.5 -129h86q0 -20 -23 -53q-6 -10 -24 -31l-33 -70l82 -4l35 2q-6 -41 -17.5 -69.5t-21.5 -57.5 q18 12 35.5 25.5t35.5 27.5q0 -20 -3 -48.5t-9 -80.5q20 8 61 37q12 8 37 29q0 -20 -6 -57t-6 -56q37 -12 72 -12q57 0 104 27h-8v129q33 20 51 20q14 0 31.5 -9t38.5 -20l-10 64q12 2 31.5 4t27.5 2q12 0 37 -4q-25 31 -45.5 66.5t-38.5 87.5l88 -17q-10 10 -41 51 q-4 6 -12 17q25 8 39 12q36 10 65 16q0 45 -2 138.5t-2 136.5q0 125 -15.5 236.5t-52.5 203.5q-20 6 -129 68q-84 47 -139 47q-61 0 -70.5 -4t-44.5 -31q-12 -8 -36.5 -30.5t-34.5 -34.5q-158 -207 -158 -500zM160 524l4 -51v-45l22 47q10 12 15 19q18 22 20 30h-61z M164 367q0 -16 2 -30.5t9 -29t16.5 -30t23.5 -33.5q8 37 22.5 73t18.5 52l-8 -2h-84zM225 233l58 -47q4 20 8 41t4 37q-18 -6 -27 -10q-33 -16 -43 -21zM313 168l23 -10l20 -8l11 -5l8 60q-25 -20 -62 -37zM551 1102q0 45 33 78q32 28 70 28h2.5h3.5q43 0 75 -32 q29 -33 29 -74q0 -43 -31 -74t-78 -31q-45 0 -74.5 32t-29.5 73zM575 162l52 37q12 10 67.5 39.5t71.5 60.5l6 14q-16 4 -43 5t-47 4q4 -14 6 -23q10 -35 12 -57q-23 8 -57 28q-23 12 -35 13q-10 0 -33 -13v-108zM655 1061q4 -14 17 -21q31 -16 47 17q14 31 -14 45 q-12 6 -26.5 2t-21.5 -17q-6 -12 -2 -26zM711 465q29 -70 73 -123q19 54 25 109zM741 537q12 -14 21 -23q23 -23 49 -47l6 86z" />
<glyph unicode="P" horiz-adv-x="780" d="M63 217l25 21v688q-2 16 -4 58t-2 108v55v39q-4 37 -6 76q0 33 6 57q16 45 149 70q90 16 175 16q125 0 233.5 -106.5t108.5 -235.5q0 -39 -33 -82q-23 -29 -71 -69t-105 -58q0 -68 -15 -152q-31 29 -46 54.5t-27 50.5q-4 -27 -9.5 -43t-17.5 -39q-16 27 -29.5 51.5 t-21.5 44.5q-14 -25 -29.5 -50.5t-42.5 -43.5q-6 25 -14 41t-21 35q-8 -16 -16 -41q-14 -43 -23 -66q-12 31 -22 69t-15 48h-57l-24 4v-348q68 -18 139 -29l2 -20q-43 -18 -62 -27q-35 -18 -53 -41l88 -20q-27 -31 -53 -53q-12 -10 -49 -41h92q-27 -31 -49.5 -53.5 t-44.5 -45.5l-6 6l2 -59h-21l-6 86v45h-25zM96 1255q0 -27 2 -54l4 -54v-114.5t7 -102.5v-90l26 -6h170l55 8l19 30l8 -26l47 6v10l8 -10q70 12 99 22q47 16 92 56q43 33 61 57q33 41 33 76q0 121 -102.5 221t-218.5 100q-129 0 -211 -18t-90.5 -48t-8.5 -63zM109 174l2 -12 l57 55h-59v-43zM109 254l73 65l-73 17v-82zM109 348q18 29 39.5 44.5t60.5 33.5l-100 23v-101zM213 813l16 -55l23 55h-39zM287 813l26 -49q6 8 21 31q8 14 14 24l-41 -6h-20zM395 825l27 -59l10 65zM455 836q6 -8 28 -50q10 -20 27 -36q8 41 8 98zM467 1075q20 70 96 70 q10 0 34 -6t44.5 -35t20.5 -60q-1 -8 -5 -24q-8 -31 -36.5 -51.5t-63.5 -20.5q-8 0 -25 4q-69 20 -69 95q0 12 4 28zM563 1020q0 -12 9.5 -21.5t23.5 -9.5q15 0 25 12q8 8 8 23q0 14 -9.5 22.5t-25.5 8.5q-12 0 -21.5 -10.5t-9.5 -24.5z" />
<glyph unicode="Q" horiz-adv-x="1001" d="M96 1204q0 61 3 80t16 41q27 53 55 107q14 16 41 41q6 6 45 39.5t101.5 46t150.5 12.5l12 24l6 -24h68h64.5t72.5 -4l17 24v-26q86 -10 139 -46t65 -114q2 -31 4 -70t0 -45v-289q-16 -176 -30 -352q-8 -35 -54 -153q-23 -63 -32 -99q-20 -78 -40 -127t-52 -88l77 -121 l-16 -12l-76 119q-55 -55 -174 -92h-180q-125 47 -182 182q-47 113 -47 277q0 90 -25 258t-25 270q0 31 -2 82t-2 59zM117 1206q0 -31 1 -66.5t3 -76.5q0 -102 24.5 -270t24.5 -258q0 -131 43 -256l74 86v-166q23 18 65 63q8 -57 8 -98q12 8 31 59q23 -39 27 -54t4 -44 l63 61q4 -10 7 -16q16 -39 34 -53q10 12 20.5 53t20.5 80q51 -57 74 -98l-16 -9q-10 16 -17.5 27.5t-29.5 36.5q-12 -45 -15 -51q-10 -31 -26 -60h20q59 18 99 39t67 49q-23 33 -41 64t-41 74l21 8q12 -25 34.5 -66t38.5 -65q27 33 47.5 84t36.5 118q43 125 86 252 q14 57 19.5 135t5.5 164q-63 0 -113.5 -48t-50.5 -111q0 -49 34 -110.5t72 -96.5l-12 -17q-45 39 -80 103.5t-35 120.5q0 72 56.5 126t130.5 54l4 31v288q2 8 2 35v23.5t-2 19.5q0 86 -51 126t-137 50v-86q25 10 37 29.5t18 32.5l16 -9q-20 -37 -34.5 -52t-57.5 -34v91 q-25 -41 -31 -48q-16 -20 -57 -51q-4 29 -8 54.5t-13 48.5l-83 -103q-10 74 -23 119q-16 -33 -27 -47q-16 -23 -45 -53q-23 45 -30 75q-8 -31 -22.5 -51t-47.5 -32q-23 49 -29 88l-45 -31q-20 -16 -41.5 -32.5t-36 -33t-29 -45t-25.5 -53.5t-14 -48.5t-3 -68.5zM221 258 q20 -47 45 -78v129zM279 166q39 -45 104 -70h18v39q0 25 -6 37q-8 -14 -17 -21.5t-38 -19.5l-4 84q-20 -25 -57 -49zM330 1528q8 -43 20 -70q20 12 33 39q4 8 16 49q-29 0 -69 -18zM416 96h102l-37 60q-12 -14 -20 -21q-23 -20 -45 -39zM422 1550q8 -37 24 -73q25 28 50 75z M530 1552l19 -84l65 82h-20zM627 1550q12 -27 17 -46t9 -46q20 16 32.5 33.5t37.5 56.5zM797 737q0 25 14 40.5t41 15.5q25 0 41 -15.5t16 -42.5q0 -21 -14 -35q-16 -18 -45 -18q-23 0 -38 14.5t-15 40.5zM864 709q11 -8 21 2t0 18q-10 10 -21 0q-10 -10 0 -20z" />
<glyph unicode="R" horiz-adv-x="645" d="M113 788v738q49 0 77 2q113 8 117 8q131 0 219 -88t88 -219q0 -143 -163 -252q-147 -96 -301 -96q31 -119 122 -265q41 -61 183 -251l20 6l-10 -19q88 -119 137 -202l-16 -13l-8 15l-3 -13q-43 4 -77.5 6t-61.5 19l45 55q-33 -8 -57.5 -11t-71.5 -3l74 123l-86 -23 q6 31 12 56.5t27 68.5l-88 21q8 18 10 28q12 35 12 41q-68 94 -106 168q-51 92 -74 180v-77l21 -154v-117l133 -10q-43 -31 -65.5 -50.5t-39.5 -41.5q25 -4 41.5 -7t67.5 -22q-66 -20 -90.5 -33.5t-46.5 -40.5l143 -59q-37 -14 -65.5 -27.5t-61.5 -29.5q41 -10 133 -66 h-72.5t-76.5 -8l-9 -2h-12v63l-14 4l14 9v98l-16 6l16 21v176l-10 2v20h10v111zM133 901q154 0 299 90q162 101 162 238q0 123 -82 205t-205 82q-37 0 -98.5 -5.5t-75.5 -5.5v-604zM154 145l73 9q-31 14 -73 26v-35zM154 211q23 14 45.5 25.5t38.5 19.5l-84 33v-78zM154 346 q18 18 27 24.5t44 18.5q-12 4 -31.5 6t-39.5 6v-55zM154 414q20 29 35 46.5t38 33.5l-73 6v-86zM307 1135q0 35 21 57q29 37 78 37q35 0 57 -21q37 -29 37 -78q-1 -34 -21 -57q-29 -37 -78 -37q-35 0 -57 21q-37 29 -37 78zM324 467l41 -16l-35 49zM371 338l63 20l-43 58 q-4 -12 -16 -49q-2 -14 -4 -29zM387 227q25 2 55.5 5.5t63.5 11.5q-16 -35 -33 -70q14 -6 52 -8t46 -4q-23 37 -55 84q-14 20 -63 86zM414 1110q-10 -29 18 -39q29 -10 39 19t-18 38q-29 10 -39 -18z" />
<glyph unicode="S" horiz-adv-x="657" d="M57 342l21 4l6 -24l86 36q-4 -29 -6 -43q-8 -43 -14 -67q20 8 61 33q25 16 51 32v-80l-4 -14l53 78q10 -35 14.5 -67.5t4.5 -63.5q98 14 164.5 79.5t66.5 166.5q0 47 -8 77q-47 0 -75.5 3.5t-63.5 15.5q39 18 65.5 37.5t40.5 44.5l-4 8h-53q-16 -4 -36.5 -8t-68.5 -4 q72 66 107 106l-113 -14q14 27 28.5 52.5t18.5 49.5l-92 -37l25 131q-66 41 -131 82q-72 49 -88.5 94.5t-29.5 104.5t-13 98q0 86 10 164t41 113q16 20 111.5 39.5t136.5 19.5q61 0 129 -43q55 -35 106 -90l2 -2l4 -4l-4 -4q0 -55 -25.5 -76.5t-88.5 -21.5q-72 0 -115 26.5 t-43 91.5q0 59 28 103q-41 -4 -121.5 -26.5t-93.5 -37.5q-29 -35 -43 -108.5t-14 -143.5q0 -37 14.5 -96t31 -105t152.5 -121t161 -108q12 -18 25 -45.5t24 -60.5l20 4l-16 -19l12 -36l16 -48h27l-14 -30q18 -47 28.5 -87t10.5 -89q0 -121 -86 -195t-209 -74q-104 0 -160 54 q-45 45 -70 145zM90 303q6 -20 13.5 -33.5t21.5 -38.5q8 43 12.5 62t12.5 39zM133 223q37 -39 92 -53l17 66v40q-25 -16 -48.5 -30.5t-60.5 -22.5zM252 166l35 -2h22q0 45 -6 80zM332 772l84 39q-10 12 -29 25q-25 18 -39 28zM354 1466q0 -53 38 -75.5t100 -22.5q94 0 94 78 q-47 51 -90 80q-55 37 -111 43q-31 -49 -31 -103zM387 700l88 15q-20 51 -47 84l-6 6q-8 -61 -35 -105zM416 610l43 8h49l-14 44l-9 22zM416 1450q0 18 16 39q10 8 18.5 12t20.5 4q23 0 39 -16t16 -41q0 -23 -14 -37q-14 -16 -39 -16t-41 16t-16 39zM463 510q6 -2 26 -2 q42 2 60 2l-21 57q-25 -35 -65 -57zM469 1440q-8 -18 10 -27q19 -8 27 10t-10 27q-18 8 -27 -10z" />
<glyph unicode="T" horiz-adv-x="780" d="M49 1292v21h62q86 -6 172 -13h217l6 15l4 -15h12l-8 31v49q39 53 104 62h33q45 -12 75 -29.5t30 -54.5q0 -43 -27 -70q0 -27 2 -45q10 -88 10 -102q-31 33 -49 58.5t-35 47.5l-20 -96l-45 104q-10 -18 -33.5 -54t-34.5 -52l-22 104q-16 -33 -23 -41q-12 -16 -43 -36 l-20 104h-13v-143q-2 -14 -3 -32t-1 -28l125 -16q-23 -33 -55 -62q-25 -23 -57 -43h102q-33 -31 -59 -45q-10 -6 -47 -20q10 -6 41 -19q14 -6 53 -20q-18 -14 -29.5 -21.5t-46.5 -19.5l55 -25q-27 -29 -44 -42t-44 -27l-2 -84q-25 -106 -35 -158q-18 -84 -26 -162v-159 q-6 -39 -10.5 -66t-8.5 -41l-20 4q4 10 10 46t8 59v159q8 68 27 160q25 106 35 160v254v2v49q6 98 12 199v141h-102q-10 2 -76 5t-96 7h-60zM393 739q26 14 49 37l-49 23v-60zM393 821q25 6 41.5 10.5t24.5 12.5q-16 6 -27.5 11t-36.5 22zM395 905q31 15 62 31l-62 -4v-27z M397 963q16 12 40 34.5t44 42.5l-84 17v-94zM436 1280l13 -70q10 10 20 28.5t20 41.5h-53zM516 1280q6 -18 10 -44t6 -36q10 16 23 35.5t23 44.5h-62zM535 1337l8 -37h45h2h121q24 25 24 58q0 29 -23.5 42t-62.5 21h-26q-31 -4 -50.5 -14t-37.5 -35v-35zM600 1280l31 -59 l12 59h-43zM639 1366q10 27 32 27q8 0 19 -4q29 -11 29 -33q0 -8 -4 -17q-12 -28 -34 -28q-9 0 -19 4q-27 10 -27 32q0 9 4 19zM659 1280l62 -86q0 12 -6 43t-6 43h-50zM682 1352q-4 -10 6 -15q10 -3 14 9q4 10 -6 12q-10 4 -14 -6z" />
<glyph unicode="U" horiz-adv-x="694" d="M51 627v712h21v-10q33 12 57.5 19.5t58.5 7.5q72 0 113 -64.5t41 -142.5q0 -66 -65.5 -118t-135.5 -52q-25 0 -35 3t-34 17v-352q35 -8 76.5 -15t87.5 -7q-37 -33 -72 -65t-53 -58h127q-18 -20 -95 -96q-29 -29 -45 -52q51 0 80 -3t58 -21q-16 -27 -45 -60.5t-41 -50.5 l79 -2l-73 -119q53 -63 149 -63q86 0 141 24q-20 61 -30 95q-20 63 -41 106q47 -8 73.5 -22.5t57.5 -38.5q-23 37 -45.5 80t-22.5 94l135 -47q-12 33 -57 77q-59 57 -78 84q27 4 95.5 6.5t89.5 4.5q-23 23 -75 48t-114 50q100 45 184 66l5 -21q-63 -16 -136 -45 q49 -25 89 -47.5t59 -36.5v815h20v-829l17 -15l-17 -2v-63q-33 -203 -86 -283q-80 -121 -264 -121q-123 0 -180 97q-45 74 -57 223v6q0 160 -17 287zM72 627q4 -25 6 -62t2 -73q20 33 49 63q8 8 53 51q-18 0 -47 6t-63 15zM72 1010l4 8q16 -8 28.5 -13.5t36.5 -5.5 q63 0 122 45.5t59 104.5q0 68 -33 123q-39 63 -101 63q-31 0 -48 -4t-68 -26v-295zM80 481l4 -114q16 25 53 61.5t53 52.5h-110zM86 334q0 -70 14.5 -122t44.5 -99l56 90l-90 -4q20 31 51 68t45 55q-16 8 -47 10t-39 2h-35zM115 1153q0 25 14 45q25 37 72 37q20 0 45 -14 q37 -25 37 -72q-1 -20 -13 -43q-25 -39 -71 -39q-27 0 -47 14q-37 25 -37 72zM190 1155q-10 -25 17 -37q12 -4 23.5 1.5t15.5 17.5q8 27 -19 34q-27 8 -37 -16zM412 231q6 -12 20 -57q33 -96 35 -104q51 24 78 67q-51 45 -72 60q-35 27 -61 34zM461 340q6 -31 26 -70 q55 -104 64 -127q37 53 61 160q11 47 23 117v59q-82 -4 -162 -8q53 -51 78 -78q45 -47 53 -102q-35 14 -71.5 26.5t-71.5 22.5z" />
<glyph unicode="V" horiz-adv-x="677" d="M82 1505l31 2q16 -76 24 -128t8 -105l5 4l161 -78q-37 -18 -55 -29q-68 -35 -86 -41q6 -6 76 -57q35 -25 53 -45q-29 -8 -49.5 -14t-48.5 -21q39 -37 57 -61q27 -35 47 -86q-31 8 -62.5 14t-54.5 6h-12l84 -75l-6 26h106q-6 25 -11 39t-17 29l-58 57l76 31h45 q-4 29 -43 98q-18 31 -37 62h111q-25 18 -43 40.5t-35 61.5l146 -2l59 223l33 -8l-11 -43q61 -18 80 -66q13 -32 13 -116q0 -74 -25 -113t-96 -39q-23 0 -31 2q-14 10 -29 23q-23 -80 -59 -201q-27 -88 -66 -201q4 -14 11 -24l-19 4q-74 -229 -149 -422l-41 4l-4 426 q-14 80 -15 180q0 8 -4 12l-10 261l-8 8l8 6q0 88 -11 158.5t-38 197.5zM147 1257l9 -106q35 10 94 37q10 4 26 12zM158 1112l14 -227l16 2h34.5t45.5 -10q-10 27 -23.5 43t-76.5 77q31 18 48 26.5t42 14.5q-23 20 -57 45q-23 14 -43 29zM176 840l17 -144q51 14 69 15l43 -4 q-18 35 -56 67.5t-73 65.5zM195 311l69 174q-14 -6 -31.5 -11t-37.5 -5v-158zM195 489q18 -2 45 9q4 0 14 6l-59 55v-70zM197 575l57 15q-4 18 -9 36.5t-18 32.5l-16 17q-12 -6 -14 -8v-93zM223 563l47 -53l-2 -12l62 184l-68 8l-35 -6q23 -25 43 -76q2 -8 9 -26zM279 797 q6 -20 24.5 -41t36.5 -39l27 80h-88zM309 938l39 -43q25 -29 29 -66l86 283h-113q33 -57 45 -82q20 -43 20 -67q0 -6 -1 -11h-54zM381 1214q10 -18 31.5 -39.5t54.5 -46.5l22 84zM489 1120q10 -12 20.5 -20t37.5 -8q59 0 79.5 32.5t20.5 98.5v28q0 59 -10 82q-16 35 -68 49 q-14 -53 -28 -98q-49 -154 -52 -164zM522 1180q0 27 23 43q10 8 24 8q25 -1 41 -19q12 -16 13 -34q0 -29 -17.5 -39.5t-32.5 -10.5q-23 0 -37 17.5t-14 34.5zM565 1149q13 -12 25 0t0 25q-12 12 -25 0q-12 -12 0 -25z" />
<glyph unicode="W" horiz-adv-x="880" d="M31 1454h20q0 -102 9.5 -218t41.5 -312v-197l23 8h84q-23 -31 -43 -51q-12 -12 -39 -37l59 -2q-16 -31 -26 -43t-21 -24q10 -2 35 -9.5t41 -9.5q-18 -33 -27.5 -44t-23.5 -17l78 4q-8 -6 -39 -31q-20 -16 -39 -27q16 -8 26.5 -12t30.5 -4q-12 -31 -20 -45 q-18 -35 -45 -55l43 -230q39 94 58 172t19 170l21 4q35 -82 72 -161q47 -102 82 -160q23 43 36 90t23 119l-2 -6q-20 10 -36.5 18t-57.5 39l78 14q-12 20 -39 43q-18 14 -37 31q20 8 41.5 14.5t42.5 10.5q-20 12 -80 28q53 23 74 31q37 16 36 39q0 10 -71 43q-39 18 -47 25 q20 10 58 23t52 20q-6 10 -24.5 23t-26.5 17l-10 7l6 2l-4 8q31 23 47 33q33 23 53 22l15 84l-29 10l8 21l25 -10q20 106 41.5 194t46.5 182l-13 15l17 16l4 -4l18 80l29 -8l-27 -90q51 -57 70.5 -124t19.5 -169q0 -76 -43 -103q-33 -20 -110 -20h-33q-8 -43 -17.5 -105.5 t-15.5 -111.5q-14 -154 -26 -307q-25 -190 -86 -295q-90 156 -164 323q-10 -92 -35 -183t-70 -198q-20 96 -47 238q-18 96 -41 231l-18 4l16 11l-22 135v2v285q-20 127 -32.5 263t-12.5 271zM102 651l64 64h-35l-25 -10l-4 10v-64zM104 629l11 -51q19 22 37 47zM117 561 l8 -55q18 8 29.5 15.5t23.5 19.5q-10 2 -29.5 9t-31.5 11zM129 481l4 -30q33 16 51 30h-55zM137 434l15 -82q10 10 19 26t17 30q-18 0 -51 26zM453 659q14 -8 28 -14q33 -18 54 -35l8 68l2 14l-45 -15t-47 -18zM455 463q20 -18 41 -37q6 -8 22 -37l8 88zM463 373 q20 -14 49 -25l4 33zM473 530q23 -10 30 -14t25 -18l2 61q-10 -8 -28.5 -16t-28.5 -13zM483 752q2 -6 28 -19.5t34 -27.5l14 92q-10 -2 -30.5 -15.5t-45.5 -29.5zM604 911h31q66 0 94 17q39 23 39 86q0 88 -17.5 150.5t-60.5 115.5zM639 993q0 20 16 41q20 16 41 17 q25 0 41.5 -16.5t16.5 -41.5q-1 -25 -17 -39q-18 -18 -43 -18q-23 0 -39 16.5t-16 40.5zM698 987q-12 -16 2 -26q15 -12 27 4q10 14 -2 24q-16 12 -27 -2z" />
<glyph unicode="X" horiz-adv-x="954" d="M90 104q10 57 45 127q80 158 88 201q27 154 78 264q78 139 129 230l4 8q-172 262 -344 526l21 8q49 -123 155 -266q156 -211 178 -248q25 45 74 160q31 66 43 96l-18 35l28 -12l45 100l-2 17l9 -4l51 92v8l33 45l6 -4v12q16 0 41.5 9.5t38.5 9.5q49 0 81.5 -31t32.5 -78 q0 -39 -32.5 -59.5t-73.5 -20.5q-18 0 -39 4t-37 8l12 -96q-27 10 -63 41q-25 18 -33 25q14 -57 53 -135q-29 6 -57.5 13t-46.5 13q16 -41 27.5 -66.5t37.5 -72.5q-49 25 -67 33q-35 16 -49 16q14 -4 16 -10l33 -94l-49.5 24t-32.5 8l-49 -102q102 -174 176 -363 q27 4 57.5 10.5t54.5 6.5q18 0 27 -2q-20 -39 -38.5 -65.5t-41.5 -53.5q31 6 66 10t76 4q-10 -23 -28 -43t-32 -39q-10 -18 -20 -34l-11 -7l76 7l43 -7q-31 -31 -57.5 -58.5t-42.5 -55.5l61 10h76q-31 -29 -49 -51q-10 -12 -57 -80l4 -10l-21 -8l-39 116l-10 -2l6 13l-33 96 l-2 4l-36 106l-23 -4l16 21q-43 121 -93 233.5t-116 222.5q-117 -213 -122 -227q-55 -119 -80 -260q-68 -164 -133 -328zM514 1061q27 -7 39 -17l-18 52zM547 1133q28 -7 61 -25q-8 18 -14 34.5t-23 45.5zM588 1225l69 -21q-20 43 -34 96zM639 1333q16 -10 31 -22 q39 -31 41 -33q0 47 -13 88l-16 45zM641 555l31 -78l65 92zM682 446l31 -86q8 8 14 13.5t14 11.5q10 23 15.5 30t25.5 27q13 13 19 23q-31 0 -63.5 -7t-55.5 -12zM696 1436q4 -20 9.5 -35t13.5 -31l2 -6q43 -14 80 -14q35 0 60.5 14t25.5 45q0 39 -26.5 63.5t-67.5 24.5 q-14 0 -38 -8t-32 -10zM721 336l27 -76q16 25 33.5 47.5t33.5 40.5q-39 0 -94 -12zM752 1425q0 25 14 40.5t41 15.5q25 0 41 -15.5t16 -42.5q0 -23 -14 -37q-14 -16 -41 -16t-42 14.5t-15 40.5zM760 227l24 -75q14 20 31 45t31 41h-19zM813 1413q-10 -14 2 -22q15 -10 25 4 q8 12 -4 20q-14 10 -23 -2z" />
<glyph unicode="Y" horiz-adv-x="735" d="M123 1419l20 8l23 -59l29 6h92q-18 -18 -42 -36.5t-34 -26.5q23 0 53 -13l12 -6l-36 -41l6 2h67l-51 -71h60l-37 -72h77q-10 -14 -28.5 -35.5t-22.5 -32.5l37 -69l55 80q-10 10 -20 28.5t-21 38.5l48 6l-50 52q43 10 74 10q-6 16 -20.5 31.5t-30.5 33.5h90q-23 31 -45 64 l55 -2h17l-35 59l57 4l-35 62l76 -31l-8 -20l-25 10l19 -31q18 37 47 72l16 -13l-8 -8q45 -25 78 -55q45 -43 45 -76q0 -100 -78 -131q-47 -18 -184 -18q-35 -78 -41 -92q-23 -43 -55 -89v-866h-21l-4 850q-41 76 -80 152l-6 2l2 6l-27 57h-24l16 17l-24 55l-27 63l-12 2 l8 7zM176 1350l12 -29l43 33h-32zM199 1290l18 -41l33 37zM225 1231l17 -39l32 41h-24zM256 1159l14 -31l21 33h-19zM289 1090l12 -29l21 29h-33zM395 1104l19 -31l14 33zM403 1165q18 -20 31 -47l21 49zM428 1233q10 -12 18.5 -25.5t10.5 -31.5l24 57h-53zM455 1167l2 9z M461 1296l31 -39l16 37h-27zM473 1159q123 0 162 15q72 26 72 114q0 20 -23 45q-10 10 -90 72q-37 -49 -70 -121q-16 -33 -51 -125zM498 1358l24 -37l19 35q-35 4 -43 2zM539 1262q0 25 16 47q23 25 55 24q25 0 49.5 -18.5t24.5 -52.5q0 -25 -16 -45q-20 -27 -60 -27 q-25 0 -47 19.5t-22 52.5zM618 1249q-4 -20 17 -24q23 -4 27 16t-19 25q-20 4 -25 -17z" />
<glyph unicode="Z" horiz-adv-x="780" d="M39 131q59 156 174 397q96 201 109 232q31 72 104 170q195 260 205 280q4 8 55 80q37 53 41 90q-119 14 -194.5 22.5t-151.5 8.5q0 -63 -52.5 -127.5t-109.5 -64.5q-82 0 -125 32.5t-43 110.5q0 27 6 49.5t11 36.5l6 -2l2 14q336 -32 672 -63q0 -49 -35 -101.5t-66 -97.5 q-27 -45 -63 -96q-6 -8 -47 -60q29 -51 36 -71q18 -41 31 -90l-133 -2l49 -123q-41 -4 -94 -7.5t-61 -3.5q29 -39 48 -79.5t33 -98.5q-31 14 -71.5 25.5t-73.5 21.5q23 -47 33 -71q20 -47 20 -94q-18 12 -57 31.5t-66 33.5q-49 -106 -81 -178q-45 -100 -78 -184h233l4 34 l17 111q25 -45 38 -69.5t23 -39.5q12 53 45 131q12 -33 29 -90q6 -20 20 -73q29 70 90 120q6 -16 19 -53q6 -23 14 -45q23 31 52.5 66t39.5 45q4 -37 14.5 -86t12.5 -70h20v-20q-43 0 -124.5 10t-122.5 10l-15 -47l-16 49l-59 2l-76 -2v-18h-21v14h-270zM72 1362 q0 -68 37.5 -95.5t109.5 -27.5q51 0 96 57.5t45 116.5l-274 25q-8 -25 -11 -40.5t-3 -35.5zM98 1339q0 27 20.5 50.5t53.5 23.5q27 0 50.5 -20.5t23.5 -53.5q-1 -26 -19 -49q-23 -25 -55 -24q-27 0 -50.5 20.5t-23.5 52.5zM147 1327q-12 -23 9 -33q24 -11 34 9q10 23 -10 32 q-23 12 -33 -8zM240 532l94 -47q-4 29 -20.5 63t-32.5 68zM270 647l11 -31l12 25zM293 641q33 -10 70 -19.5t53 -19.5q-18 68 -76 143zM330 156l57 2q-12 14 -25.5 35.5t-23.5 37.5l-8 -47v-28zM348 764l139 6l-45 127q23 2 63 4t46 2q18 -2 24 -2q-10 37 -22 64 q-20 41 -29 61q-72 -94 -96 -129q-53 -76 -80 -133zM403 158l56 -2l-29 102q-10 -31 -14 -45t-13 -55zM504 154q49 -6 106 -13.5t92 -7.5l-20 109q-18 -18 -47 -56q-16 -23 -33 -43q-18 29 -27.5 55.5t-13.5 41.5q-35 -31 -57 -86z" />
<glyph unicode="[" horiz-adv-x="256" d="M31 655v861h71q49 0 72 3t57 17l9 -20q-39 -14 -80 -17.5t-109 -3.5v-838l10 -51v-483h154v-21h-174v500z" />
<glyph unicode="\" horiz-adv-x="593" d="M90 1503l21 4l86 -270q-4 -2 -9.5 -4t-11.5 -4q57 -301 94 -436.5t86 -266.5q10 4 21 9q86 -209 108 -275q33 -92 47 -174l-71 6q-23 121 -80 264q-45 102 -66 154q10 4 21 8q-59 154 -109 344q-35 137 -80 359q-14 -4 -24 -6.5t-17 -2.5q-4 16 -5 50t-1 57v49v35 q0 63 -10 100z" />
<glyph unicode="]" horiz-adv-x="348" d="M51 1505v21h225q0 -113 -10 -234t-30 -258v-377q12 -90 18 -289.5t12 -265.5h-184v21h164q-16 266 -31 532v381q18 125 29.5 242t11.5 227h-205z" />
<glyph unicode="^" horiz-adv-x="256" d="M53 1409q55 66 68 82q35 47 69 102l35 -168l-20 -4l-25 119q-23 -37 -67 -92q-31 -35 -43 -51z" />
<glyph unicode="_" horiz-adv-x="624" d="M31 31v20h520l41 10l4 -20l-43 -10h-522z" />
<glyph unicode="`" horiz-adv-x="184" d="M41 1583l20 8l82 -225l-20 -8z" />
<glyph unicode="{" horiz-adv-x="286" d="M68 885l86 53q0 39 -25 102q-35 92 -37 97v274q8 43 37 78q20 27 43 39q6 4 14 -8q3 -3 7 -13q-14 -6 -23 -12q-51 -37 -55 -92l-2 -264q31 -82 46 -132.5t15 -80.5l-76 -47q20 -23 43 -47.5t23 -43.5q0 -57 -12 -141q-29 -195 -29 -252v-84q4 -68 29 -123l-17 -8 q-23 41 -28 87t-5 128q0 66 13 152q29 201 28 241q0 16 -25.5 43t-49.5 54z" />
<glyph unicode="|" horiz-adv-x="368" d="M164 51q0 254 23.5 518.5t68.5 538.5v430l10 41l21 -4l-11 -39v-430q-45 -270 -68.5 -531.5t-23.5 -523.5h-20z" />
<glyph unicode="}" horiz-adv-x="360" d="M76 100q92 55 125 162q25 80 24 230q0 109 -16 170t-68 165l97 27q-25 23 -74 76q-16 16 -47 51l100 131q31 43 40 74t9 82v43q0 117 -82 157q-27 12 -82 19l9 16q59 -8 88 -22q88 -47 88 -170v-37q0 -68 -7.5 -96.5t-46.5 -77.5l-90 -119l131 -135l-106 -35 q43 -84 60.5 -150.5t17.5 -168.5q0 -154 -27 -238q-35 -111 -131 -170z" />
<glyph unicode="~" horiz-adv-x="481" d="M72 1448q35 76 39 82q33 47 84 47q29 0 82 -25.5t81 -25.5q41 0 48 16q14 39 16 41l16 -12q-16 -37 -20 -47q-10 -18 -60 -19q-31 0 -86 25.5t-77 25.5q-45 0 -70 -40q-6 -8 -33 -76z" />
<glyph unicode="&#xad;" d="M90 881l51 10h279l43 -10l-4 -21l-41 10h-273l-51 -10z" />
<glyph unicode="&#x2c6;" horiz-adv-x="256" d="M53 1409q55 66 68 82q35 47 69 102l35 -168l-20 -4l-25 119q-23 -37 -67 -92q-31 -35 -43 -51z" />
<glyph unicode="&#x2000;" horiz-adv-x="819" />
<glyph unicode="&#x2001;" horiz-adv-x="1638" />
<glyph unicode="&#x2002;" horiz-adv-x="819" />
<glyph unicode="&#x2003;" horiz-adv-x="1638" />
<glyph unicode="&#x2004;" horiz-adv-x="546" />
<glyph unicode="&#x2005;" horiz-adv-x="409" />
<glyph unicode="&#x2006;" horiz-adv-x="273" />
<glyph unicode="&#x2007;" horiz-adv-x="273" />
<glyph unicode="&#x2008;" horiz-adv-x="204" />
<glyph unicode="&#x2009;" horiz-adv-x="327" />
<glyph unicode="&#x200a;" horiz-adv-x="91" />
<glyph unicode="&#x2010;" d="M90 881l51 10h279l43 -10l-4 -21l-41 10h-273l-51 -10z" />
<glyph unicode="&#x2011;" d="M90 881l51 10h279l43 -10l-4 -21l-41 10h-273l-51 -10z" />
<glyph unicode="&#x2012;" d="M90 881l51 10h279l43 -10l-4 -21l-41 10h-273l-51 -10z" />
<glyph unicode="&#x2013;" horiz-adv-x="1142" d="M90 881l140 10h766l118 -10l-11 -21l-113 10h-749l-140 -10z" />
<glyph unicode="&#x2014;" horiz-adv-x="2166" d="M90 881l280 10h1532l236 -10l-22 -21l-225 10h-1499l-280 -10z" />
<glyph unicode="&#x2018;" horiz-adv-x="569" d="M86 1303q0 27 12 51l4 8l7 12l4 4q10 18 21 31.5t48 44.5q66 57 103 80q61 37 125 37q55 0 92 -31t45 -82q-10 2 -42 26.5t-43 28t-18 3.5q-20 0 -43.5 -9.5t-51 -18.5t-39 -22.5t-11.5 -27.5q0 -16 6 -27q0 -2 6 -4q47 -41 47 -107q0 -31 -10 -51q-37 -80 -125 -80 q-27 0 -55 13q-82 37 -82 121z" />
<glyph unicode="&#x2019;" horiz-adv-x="569" d="M147 1137q35 -2 60.5 -4.5t34.5 0.5q27 2 55 36q20 27 31 39q27 29 26 54q0 18 -14 30q-4 4 -32.5 10.5t-60.5 38t-32 78.5q-8 53 28 97.5t91 50.5q59 0 101 -30t46 -83v-10v-17q0 -27 -5 -52t-15 -52q-35 -96 -49 -121q-35 -61 -93 -92q-39 -23 -73 -23q-59 0 -99 50z " />
<glyph unicode="&#x201c;" horiz-adv-x="942" d="M86 1303q0 27 12 51l4 8l7 12l4 4q10 18 21 31.5t48 44.5q66 57 103 80q61 37 125 37q55 0 92 -31t45 -82q-10 2 -42 26.5t-43 28t-18 3.5q-20 0 -43.5 -9.5t-51 -18.5t-39 -22.5t-11.5 -27.5q0 -16 6 -27q0 -2 6 -4q47 -41 47 -107q0 -31 -10 -51q-37 -80 -125 -80 q-27 0 -55 13q-82 37 -82 121zM444 1282q0 27 13 51l4 8l6 13l4 4q10 18 21.5 31.5t48.5 44.5q66 57 102 79q61 37 125 37q55 0 92 -30.5t45 -81.5q-10 2 -42 26.5t-43 27.5t-17 3q-20 0 -44 -9t-51.5 -18.5t-39 -22.5t-11.5 -28q0 -16 7 -26q0 -2 6 -5q47 -41 47 -104 q0 -31 -12.5 -59.5t-47 -51t-75.5 -22.5q-27 0 -56 12q-82 37 -82 121z" />
<glyph unicode="&#x201d;" horiz-adv-x="870" d="M147 1137q35 -2 60.5 -4.5t34.5 0.5q27 2 55 36q20 27 31 39q27 29 26 54q0 18 -14 30q-4 4 -32.5 10.5t-60.5 38t-32 78.5q-8 53 28 97.5t91 50.5q59 0 101 -30t46 -83v-10v-17q0 -27 -5 -52t-15 -52q-35 -96 -49 -121q-35 -61 -93 -92q-39 -23 -73 -23q-59 0 -99 50z M485 1126q35 -2 60.5 -4t34.5 0q27 2 55 37q20 27 31 39q27 29 26 53q0 18 -14 31q-4 4 -33 10t-60.5 38t-31.5 79q-8 53 27.5 97t91.5 50q59 0 101 -29.5t46 -82.5v-10v-17q0 -27 -5 -52t-15 -52q-33 -86 -49 -117q-33 -57 -93 -96q-35 -23 -73 -23q-59 0 -99 49z" />
<glyph unicode="&#x2026;" horiz-adv-x="747" d="M0 125q0 37 20 59q27 35 78 35q37 0 60 -20q37 -29 37 -78q-1 -37 -21 -60q-27 -35 -78 -34q-39 0 -61 20q-35 27 -35 78zM276 104q0 33 21 60q31 41 84 41q33 0 59 -21q41 -31 41 -84q0 -32 -20 -59q-31 -41 -84 -41q-33 0 -60 20q-41 31 -41 84zM530 123q0 43 31 68.5 t64 25.5q42 0 71 -33q23 -29 23 -61q0 -43 -31 -68.5t-63 -25.5q-43 0 -69 30.5t-26 63.5z" />
<glyph unicode="&#x202f;" horiz-adv-x="327" />
<glyph unicode="&#x205f;" horiz-adv-x="409" />
<glyph unicode="&#x25fc;" horiz-adv-x="1024" d="M0 0z" />
</font>
</defs>
</svg>
